<?xml version="1.0" standalone="no"?>
<!DOCTYPE svg PUBLIC "-//W3C//DTD SVG 20010904//EN"
 "http://www.w3.org/TR/2001/REC-SVG-20010904/DTD/svg10.dtd">
<svg version="1.0" xmlns="http://www.w3.org/2000/svg"
 width="780.000000pt" height="1280.000000pt" viewBox="0 0 780.000000 1280.000000"
 preserveAspectRatio="xMidYMid meet">
<metadata>
Created by potrace 1.15, written by Peter Selinger 2001-2017
</metadata>
<g transform="translate(0.000000,1280.000000) scale(0.100000,-0.100000)"
fill="#000000" stroke="none">
<path d="M290 12773 c-32 -29 -33 -33 -57 -232 l-8 -63 -83 -30 c-46 -17 -86
-36 -88 -43 -9 -23 17 -97 43 -121 14 -13 41 -28 61 -35 59 -19 69 -33 75
-106 3 -48 14 -84 39 -132 29 -58 37 -66 58 -62 45 6 60 21 95 93 37 75 52 98
66 98 14 0 50 -78 80 -176 16 -50 38 -103 49 -117 33 -42 50 -92 56 -170 l7
-74 -52 -6 c-71 -8 -165 -66 -191 -117 -28 -54 -61 -212 -53 -252 10 -53 46
-117 121 -214 87 -113 185 -204 429 -400 106 -85 214 -176 241 -202 60 -59
136 -207 157 -307 30 -142 15 -227 -63 -359 -61 -103 -145 -187 -319 -319
-184 -140 -254 -215 -319 -342 -71 -138 -88 -194 -88 -290 0 -64 5 -91 26
-136 29 -64 80 -119 141 -151 60 -32 182 -31 250 1 61 30 113 91 132 155 19
65 19 179 -1 245 -14 48 -20 55 -61 73 -59 26 -173 22 -224 -8 -46 -27 -78
-88 -80 -154 -2 -45 1 -56 21 -72 23 -19 24 -19 44 1 15 16 19 31 17 69 -3 71
26 103 100 110 68 5 103 -19 120 -81 17 -63 5 -178 -23 -229 -45 -82 -139
-103 -236 -54 -90 46 -143 124 -149 226 -4 53 0 79 22 140 71 195 138 275 350
415 78 52 167 120 199 152 115 115 217 303 238 435 13 90 -1 185 -51 328 -16
47 -27 87 -25 89 11 11 151 -99 231 -182 101 -105 148 -181 192 -312 52 -158
51 -196 -12 -445 -92 -359 -147 -496 -251 -635 -29 -38 -126 -151 -216 -250
-254 -282 -326 -371 -376 -470 -26 -49 -48 -92 -50 -94 -2 -2 -20 11 -40 29
-40 34 -55 36 -176 14 -37 -6 -38 -6 -37 22 0 16 4 52 8 79 9 70 -3 136 -35
184 -14 23 -30 41 -35 41 -14 0 -98 -178 -104 -225 l-7 -45 -123 3 c-120 2
-123 1 -143 -23 -44 -52 -19 -112 77 -186 66 -51 65 -47 21 -133 -20 -40 -25
-86 -14 -128 11 -41 57 -30 117 26 59 55 95 77 107 64 4 -4 18 -36 30 -71 13
-34 26 -65 30 -67 4 -2 17 6 29 19 20 21 21 28 12 63 -11 41 -3 92 20 119 18
21 47 17 71 -12 16 -18 29 -23 45 -19 13 3 23 4 23 1 0 -2 -12 -59 -26 -127
-24 -116 -26 -137 -21 -314 5 -195 -11 -480 -33 -565 -14 -55 -71 -161 -85
-157 -5 2 -14 21 -19 43 -33 152 -66 214 -114 214 -26 0 -76 -65 -107 -139
-16 -39 -36 -78 -45 -85 -17 -16 -48 -8 -69 18 -17 20 -51 20 -95 2 -28 -12
-35 -21 -41 -54 -8 -51 5 -99 44 -155 25 -37 28 -46 15 -51 -19 -7 -44 -66
-44 -104 0 -24 8 -32 48 -51 30 -16 72 -25 118 -29 l70 -4 30 -56 c34 -66 66
-91 121 -99 58 -8 75 21 80 130 6 120 7 124 50 132 97 18 184 80 199 142 9 33
-5 43 -100 79 -39 15 -75 30 -79 34 -12 11 -2 37 37 98 19 29 42 82 52 117 10
36 22 65 25 65 4 0 34 -84 68 -187 34 -104 80 -228 102 -278 48 -107 181 -486
199 -567 10 -45 11 -67 2 -96 -7 -22 -17 -85 -23 -142 -18 -182 -87 -322 -220
-453 -97 -95 -132 -110 -254 -111 -79 0 -96 3 -143 27 -137 72 -212 221 -200
396 6 81 51 171 102 202 39 24 108 24 161 0 52 -23 68 -43 75 -94 5 -37 8 -42
30 -39 51 5 66 69 30 126 -43 71 -149 100 -260 72 -75 -19 -122 -53 -167 -119
-54 -80 -67 -245 -28 -356 17 -48 101 -175 141 -213 40 -37 90 -56 170 -64 95
-9 104 -16 65 -45 -33 -24 -133 -166 -145 -206 -11 -34 -23 -28 -50 25 l-24
47 -45 -47 c-41 -45 -63 -82 -101 -171 -16 -38 -16 -38 -45 -22 -48 24 -86 19
-115 -16 -14 -17 -26 -42 -26 -55 0 -30 41 -113 67 -137 18 -16 19 -27 15
-115 -6 -129 10 -172 63 -172 65 0 126 40 164 107 8 14 20 15 121 3 l113 -14
23 28 c29 33 30 60 5 151 -18 64 -18 71 -4 87 9 10 22 18 29 18 21 0 114 132
114 162 l0 26 -100 -5 c-87 -5 -103 -4 -120 12 -37 33 -21 100 50 210 38 57
59 80 88 92 20 8 73 40 117 71 192 132 226 165 277 263 35 68 36 43 3 -81 -39
-143 -189 -499 -327 -775 -42 -82 -90 -184 -108 -225 -18 -41 -38 -88 -46
-105 -7 -16 -33 -86 -58 -155 -24 -69 -68 -188 -96 -265 -65 -174 -111 -356
-141 -556 -21 -133 -24 -189 -23 -419 0 -283 8 -382 54 -635 28 -158 30 -163
116 -340 113 -234 244 -421 370 -526 47 -39 91 -80 99 -93 8 -12 19 -55 25
-96 10 -66 8 -94 -14 -230 -31 -190 -42 -223 -112 -327 -97 -144 -203 -223
-299 -223 -91 0 -214 63 -257 132 -62 100 -77 261 -29 312 26 28 120 66 163
66 43 0 93 -27 123 -65 29 -39 31 -59 9 -110 -8 -20 -13 -40 -9 -43 3 -3 27 3
52 14 33 13 51 28 57 45 24 69 -37 164 -127 198 -39 14 -51 24 -49 38 1 10 5
49 9 86 l6 68 68 39 c70 41 109 81 109 109 -1 19 -90 73 -159 96 l-48 16 -5
69 c-3 42 -13 81 -25 102 -23 40 -59 49 -79 19 -8 -11 -35 -34 -59 -51 -28
-19 -47 -41 -51 -58 -15 -67 -11 -64 -72 -57 -32 3 -69 9 -84 11 -23 5 -31 0
-48 -28 -27 -45 -25 -71 10 -134 l31 -53 -25 -48 c-33 -64 -39 -93 -26 -127 8
-23 15 -27 33 -22 12 4 36 9 54 13 l32 6 -9 -34 c-17 -57 -12 -110 11 -135 20
-21 20 -26 9 -94 -16 -93 -6 -170 31 -246 67 -140 227 -217 399 -193 148 21
245 101 345 284 33 60 65 121 71 135 19 43 43 178 55 305 6 66 12 121 14 123
2 2 14 -4 28 -12 59 -39 308 -110 424 -121 54 -5 70 -10 67 -20 -8 -19 31 -55
66 -62 55 -10 31 -20 -63 -25 -51 -3 -103 -10 -115 -17 -28 -15 -29 -49 -2
-127 15 -44 32 -68 67 -99 l46 -41 -47 -86 c-30 -56 -49 -104 -53 -136 -5 -46
-3 -51 20 -67 22 -14 34 -15 89 -5 34 6 90 22 122 37 l60 26 14 -22 c8 -11 18
-21 23 -21 5 0 28 -19 51 -43 50 -49 97 -74 173 -90 54 -11 56 -10 83 16 26
26 27 32 30 140 1 61 5 121 7 133 3 11 29 37 59 57 86 57 128 98 152 152 13
27 24 55 24 62 0 20 -40 27 -159 27 l-113 1 -5 50 c-9 108 -62 245 -95 245
-21 0 -163 -141 -173 -172 -10 -29 -29 -21 -84 37 -29 30 -60 55 -68 55 -34 0
-3 11 86 30 104 23 231 88 276 142 33 39 74 119 125 246 60 150 74 212 73 332
0 169 -50 263 -172 329 -301 160 -635 23 -692 -284 -15 -82 2 -180 41 -234 33
-45 122 -86 152 -70 31 17 39 11 33 -25 -4 -20 -2 -43 5 -56 10 -19 17 -21 53
-16 23 4 55 16 73 26 43 27 51 25 75 -15 23 -38 74 -60 97 -42 20 15 48 77 56
119 6 33 13 40 60 61 31 14 65 40 81 61 15 20 31 36 36 36 24 0 -93 -332 -144
-406 -38 -55 -154 -126 -243 -149 -131 -34 -211 -38 -339 -16 -162 28 -212 44
-283 91 -89 60 -117 96 -131 171 -14 68 -40 142 -98 279 -32 74 -150 259 -220
343 -35 43 -29 48 34 26 31 -10 64 -19 74 -19 14 0 19 -12 24 -58 9 -75 23
-130 36 -138 21 -12 57 7 83 44 15 22 38 45 51 52 22 12 30 10 76 -15 28 -15
74 -33 102 -41 51 -13 52 -13 79 13 34 32 34 35 6 144 l-22 86 38 33 c66 59
92 135 64 195 -13 29 -29 31 -144 14 -83 -13 -94 -8 -94 39 0 12 -6 24 -12 26
-7 2 -35 9 -63 16 -27 7 -57 14 -66 17 -12 3 -27 -18 -59 -79 -60 -116 -52
-111 -123 -77 -72 34 -85 35 -103 12 -17 -23 -17 -46 0 -113 8 -30 13 -56 11
-58 -2 -2 -14 4 -28 12 -22 15 -26 15 -37 1 -10 -13 -20 -4 -66 60 -113 157
-149 263 -165 490 -22 287 -2 509 71 829 41 177 41 177 68 139 l21 -30 -33
-49 c-18 -27 -36 -61 -40 -76 -6 -27 -5 -28 29 -28 19 0 58 9 86 19 35 14 58
17 74 11 31 -12 85 -80 85 -107 0 -25 18 -37 69 -48 31 -7 37 -4 72 35 22 23
39 44 39 45 0 1 -20 5 -45 8 -26 2 -48 6 -50 9 -5 5 13 147 20 158 3 5 36 18
74 30 74 22 105 48 116 97 l6 31 -53 6 c-29 3 -73 7 -98 9 l-45 2 -12 69 c-7
39 -17 74 -23 80 -5 5 -10 20 -10 33 0 26 0 26 -33 14 -17 -7 -38 -38 -73
-108 -36 -72 -50 -92 -52 -75 -3 19 -9 22 -46 22 -23 0 -48 -6 -55 -12 -10
-11 -11 -7 -5 17 22 92 215 569 278 688 58 108 296 660 329 762 66 205 97 382
97 560 0 133 -8 174 -76 400 -25 83 -48 158 -51 169 -10 35 18 5 104 -112 47
-64 159 -190 247 -281 185 -190 251 -285 267 -382 12 -75 -12 -189 -40 -189
-5 0 -19 28 -31 61 -13 34 -39 83 -59 110 -20 26 -41 56 -47 66 -17 27 -40 2
-59 -65 -9 -32 -31 -85 -48 -120 -29 -57 -34 -63 -57 -58 -14 3 -47 9 -75 12
-44 5 -53 3 -71 -17 -12 -13 -27 -48 -34 -77 -12 -52 -12 -54 14 -81 33 -35
33 -41 -5 -77 -37 -34 -59 -81 -59 -124 0 -78 49 -103 193 -98 l99 3 13 -32
c7 -17 27 -39 43 -47 17 -9 52 -40 78 -69 52 -58 87 -82 109 -73 7 2 26 26 41
52 30 52 35 99 20 215 l-9 67 54 11 c92 19 148 42 194 76 40 31 44 32 58 17
30 -34 86 -161 121 -272 55 -178 70 -275 70 -440 0 -127 -3 -155 -26 -230 -15
-47 -40 -114 -57 -149 -29 -62 -33 -66 -78 -78 -82 -21 -84 -20 -60 29 23 49
36 148 19 148 -6 0 -34 -9 -62 -20 -28 -11 -55 -20 -59 -20 -5 0 -28 34 -50
75 -23 41 -46 75 -52 75 -6 0 -41 -29 -77 -64 l-66 -64 -69 74 c-38 41 -77 74
-88 74 -41 0 -52 -137 -19 -244 22 -70 22 -71 -22 -127 -36 -45 -50 -92 -35
-112 23 -29 78 -27 134 4 61 34 93 37 93 11 0 -26 57 -112 74 -112 18 0 96 85
96 105 0 19 57 55 89 55 13 0 48 14 78 30 29 17 53 26 53 20 0 -16 -68 -87
-119 -124 -79 -58 -188 -108 -250 -113 -98 -9 -297 35 -406 90 -67 33 -135
114 -190 222 -50 99 -50 101 -50 195 1 173 63 288 190 350 77 38 246 34 262
-6 3 -9 -2 -42 -12 -74 -20 -67 -16 -86 21 -100 58 -22 135 17 150 76 6 25 0
49 -31 127 -12 29 38 21 114 -18 73 -38 101 -43 101 -20 0 35 -33 77 -73 96
-49 22 -150 25 -185 5 -20 -10 -36 -10 -95 1 -172 34 -368 -34 -446 -155 -68
-107 -108 -237 -96 -315 25 -161 136 -353 246 -422 84 -54 338 -115 473 -115
79 1 170 32 275 95 207 124 353 355 397 629 22 134 14 229 -40 456 -33 139
-46 173 -122 328 -47 95 -124 232 -173 305 -104 157 -181 281 -181 290 0 4 24
-3 53 -14 28 -12 77 -30 107 -41 59 -21 77 -39 118 -121 32 -62 68 -86 109
-71 38 13 74 81 80 153 l6 59 50 5 c75 9 172 58 193 98 16 33 16 33 -11 55
-42 33 -127 74 -155 74 -49 0 -54 13 -22 63 16 26 35 67 42 91 13 46 7 110
-11 121 -5 4 -30 -7 -56 -24 -26 -17 -52 -31 -60 -31 -7 0 -13 -4 -13 -10 0
-5 -4 -10 -9 -10 -5 0 -23 -14 -40 -31 l-31 -31 -29 19 c-16 10 -55 42 -86 71
-56 51 -59 52 -91 40 -38 -13 -38 -14 -55 -120 -10 -65 -15 -79 -40 -97 -19
-14 -29 -31 -29 -47 0 -33 33 -97 67 -129 47 -43 4 -29 -80 26 -61 40 -81 49
-91 39 -12 -9 -47 22 -182 160 -397 405 -614 755 -720 1165 -28 106 -29 119
-28 330 1 268 18 372 86 502 41 79 62 106 36 47 -19 -45 -16 -360 5 -453 18
-82 109 -278 151 -328 15 -17 59 -52 99 -76 40 -24 99 -60 131 -80 113 -70
168 -82 428 -97 3 0 9 -13 13 -29 7 -32 35 -61 81 -84 17 -9 36 -23 43 -31 17
-20 1 -21 -81 -4 -51 11 -60 10 -74 -4 -11 -11 -14 -25 -10 -42 8 -31 63 -96
82 -96 7 0 28 -13 46 -29 l32 -28 -17 -44 c-33 -86 -11 -175 48 -203 18 -9 37
-16 42 -16 4 0 39 28 77 62 57 51 71 60 85 50 57 -41 227 -105 263 -100 29 4
68 63 68 102 0 17 -12 63 -26 101 -14 39 -28 78 -31 87 -3 12 10 27 45 52 55
40 92 108 92 170 0 77 -24 83 -147 36 -42 -16 -83 -30 -90 -30 -6 0 -19 26
-28 58 -9 31 -24 65 -32 74 -41 45 -138 26 -169 -34 -10 -19 -19 -65 -22 -110
-3 -57 -8 -78 -18 -78 -16 0 -17 10 -4 44 9 24 8 25 -21 19 -22 -4 -36 0 -53
16 -12 12 -51 37 -86 55 l-63 34 44 7 c68 12 187 54 262 92 119 63 205 179
268 363 29 83 33 109 33 200 1 116 -18 176 -72 233 -114 121 -385 120 -523 -1
-118 -103 -134 -320 -32 -433 20 -22 49 -43 67 -47 30 -9 86 3 86 17 0 4 -23
29 -50 55 -60 57 -78 89 -86 150 -14 100 47 216 137 263 94 48 219 25 302 -55
62 -59 80 -104 85 -207 4 -78 1 -101 -21 -164 -31 -87 -73 -160 -146 -248 -63
-77 -133 -115 -255 -138 -116 -22 -282 -20 -357 5 -64 22 -200 96 -284 156
-65 46 -79 60 -71 72 3 6 19 -2 35 -19 56 -55 117 -36 162 53 26 51 36 54 68
19 27 -29 34 -31 99 -31 67 0 71 1 94 33 49 64 47 73 -27 142 l-68 63 30 65
c40 85 47 117 33 166 -12 46 -26 50 -62 22 -24 -19 -133 -71 -148 -71 -4 0
-10 11 -14 24 -9 37 -77 106 -112 112 -25 5 -32 2 -42 -21 -7 -14 -12 -37 -12
-51 0 -23 -29 -154 -36 -162 -1 -2 -19 1 -38 8 -31 10 -38 9 -53 -5 -15 -15
-15 -22 -3 -64 7 -25 15 -68 18 -96 l4 -50 -20 19 c-38 34 -66 153 -78 331
-10 149 4 212 94 433 l79 194 106 122 c58 67 147 167 197 222 219 236 247 290
376 734 51 176 57 207 61 316 7 147 -3 195 -65 327 -47 101 -47 110 -2 120 20
5 39 -4 85 -38 61 -46 93 -53 155 -36 31 9 49 55 49 132 l1 56 61 33 c44 23
69 45 90 78 60 94 21 152 -101 152 -56 0 -61 6 -79 90 -15 69 -34 90 -80 90
-57 0 -93 -30 -135 -110 -42 -82 -42 -111 2 -123 16 -4 25 -1 29 11 20 66 62
132 82 132 4 0 12 -16 18 -35 10 -30 8 -36 -11 -48 -11 -8 -42 -35 -68 -60
-54 -53 -107 -71 -174 -61 -56 8 -67 24 -17 24 32 0 42 5 56 29 9 16 17 41 17
55 l0 26 -39 -21 -40 -20 -47 20 c-58 26 -60 26 -80 -4 -14 -22 -14 -29 0 -79
13 -45 26 -63 66 -97 34 -28 50 -50 50 -66 0 -38 -26 -27 -93 40 -68 67 -306
238 -426 306 -41 23 -90 54 -110 70 -20 16 -92 66 -161 111 -69 46 -153 111
-188 144 -125 120 -227 288 -258 424 -14 62 -14 77 -3 113 17 50 62 79 125 79
60 0 87 -27 146 -144 83 -166 152 -256 195 -256 13 0 35 -11 49 -25 29 -29 37
-30 53 -11 9 11 2 27 -38 80 -40 53 -136 227 -164 296 -5 13 -7 13 -16 0 -17
-23 -24 -4 -65 159 -60 242 -50 337 54 548 145 291 276 386 640 469 115 26
191 29 338 14 190 -20 278 -45 469 -132 344 -156 401 -202 614 -498 70 -96
153 -204 186 -240 33 -36 73 -86 91 -111 61 -91 211 -205 372 -285 284 -141
721 -193 990 -119 137 38 259 43 375 16 50 -12 140 -26 200 -31 61 -5 134 -14
164 -20 90 -17 156 -12 452 34 274 43 290 46 449 105 185 68 236 93 386 187
57 36 117 70 134 75 41 15 134 -7 358 -82 149 -49 189 -67 261 -116 97 -66
212 -174 261 -247 62 -92 46 -186 -40 -228 -45 -22 -102 -9 -155 34 -41 35
-43 58 -11 132 l17 38 -28 -6 c-44 -10 -93 -69 -93 -111 0 -64 40 -124 104
-157 90 -46 224 -4 291 91 27 38 30 51 30 114 0 60 -5 80 -29 125 -91 164
-339 348 -536 398 -36 9 -81 24 -100 34 -19 10 -73 25 -120 35 -72 15 -113 27
-128 41 -2 1 21 34 52 73 l56 69 37 -10 c47 -13 158 -3 188 16 21 14 22 13 33
-47 15 -82 61 -171 89 -175 35 -5 89 26 146 83 l52 52 135 10 c153 11 201 27
220 74 19 44 -10 107 -82 185 l-60 64 50 67 c27 38 54 77 60 89 14 26 45 180
40 195 -3 8 -16 1 -35 -17 -24 -22 -38 -51 -58 -117 -23 -78 -32 -95 -78 -140
-29 -29 -67 -60 -85 -69 -47 -25 -41 -58 13 -76 22 -7 47 -20 55 -27 12 -13
12 -15 -5 -15 -38 1 -227 28 -232 34 -4 3 37 48 90 100 54 51 97 101 97 109 0
32 -61 -5 -158 -96 -53 -49 -98 -85 -99 -80 -2 6 2 38 10 72 l14 61 -38 0
c-32 0 -41 5 -54 30 -8 16 -15 43 -15 60 0 28 2 31 23 24 28 -9 62 -35 88 -68
23 -29 60 -34 79 -11 23 28 116 74 181 91 35 9 72 20 82 25 25 14 21 38 -9 49
-27 10 -54 2 -195 -63 l-56 -26 -39 26 c-22 15 -63 46 -93 70 -63 51 -93 53
-125 10 -18 -25 -21 -42 -20 -117 2 -96 0 -100 -66 -100 -39 0 -70 -27 -70
-60 0 -30 40 -118 72 -159 24 -32 23 -46 -7 -59 -49 -23 -149 -8 -141 20 3 7
17 53 32 102 l27 88 -18 119 -18 118 -67 76 c-128 145 -188 171 -379 162 -134
-6 -229 -32 -272 -73 l-29 -28 -89 12 c-126 17 -135 16 -176 -20 -62 -55 -80
-128 -31 -128 16 0 25 9 34 34 17 45 68 70 126 62 69 -11 73 -18 39 -67 -100
-145 -107 -240 -25 -331 71 -79 149 -98 202 -50 35 30 80 143 80 197 0 64 -21
133 -56 182 -64 90 -40 111 139 124 193 14 255 -7 351 -120 86 -102 112 -221
77 -356 -28 -107 -59 -166 -131 -252 -68 -82 -73 -84 -190 -58 -148 33 -448
10 -800 -61 -100 -21 -497 -128 -558 -152 -9 -3 -4 15 14 49 15 30 32 79 39
109 l11 55 91 11 c101 13 121 23 194 101 68 73 75 89 45 108 -30 20 -114 42
-188 50 -67 7 -68 11 -43 105 28 103 14 230 -25 230 -38 0 -183 -83 -244 -141
-74 -69 -105 -75 -186 -34 -75 38 -120 33 -145 -16 -20 -38 -19 -112 4 -186
22 -72 21 -73 -63 -73 -66 0 -86 -19 -86 -79 0 -64 43 -103 137 -125 40 -9 81
-16 93 -16 11 0 23 -7 26 -15 12 -31 -20 -77 -90 -131 -39 -29 -84 -64 -99
-76 -55 -44 -139 -28 -512 97 -119 40 -484 216 -511 247 -19 21 -19 21 6 13
55 -17 303 -17 398 -1 222 38 332 95 457 236 102 114 135 176 142 263 12 147
-88 327 -219 393 -119 60 -290 72 -426 29 -86 -27 -110 -47 -141 -115 -27 -60
-26 -78 9 -133 31 -50 56 -59 84 -31 21 20 20 29 -5 63 -26 36 -28 87 -3 111
34 34 137 53 249 47 55 -3 116 -11 135 -16 57 -17 168 -125 201 -196 51 -107
38 -192 -46 -310 -81 -112 -144 -161 -277 -214 -125 -49 -209 -65 -338 -64
-142 1 -241 28 -408 110 -92 45 -112 58 -105 72 4 9 8 56 8 105 l0 89 82 27
c98 31 128 57 148 124 23 75 22 76 -39 76 -29 0 -80 3 -113 6 l-60 7 -5 96
c-10 197 -60 228 -181 111 -34 -33 -64 -60 -68 -60 -3 0 -18 17 -32 38 -25 39
-78 72 -114 72 -10 0 -29 -7 -42 -16 -23 -16 -23 -20 -19 -145 l4 -129 -47 0
c-41 0 -48 -3 -58 -27 -8 -20 -8 -38 -1 -62 18 -63 14 -61 -198 82 -141 95
-224 137 -320 161 -33 9 -101 31 -149 50 -113 43 -170 55 -322 66 -240 19
-469 -19 -638 -103 -86 -44 -220 -141 -270 -196 -84 -94 -224 -345 -243 -437
-6 -30 -15 -54 -19 -54 -6 0 -71 213 -71 233 0 4 11 7 25 7 62 0 165 66 165
105 0 26 -41 65 -101 96 -22 11 -39 22 -39 25 0 4 16 25 36 47 50 54 76 119
82 199 6 80 3 81 -74 38 -46 -27 -158 -59 -205 -60 -10 0 -20 11 -23 26 -7 26
-121 154 -137 154 -5 0 -22 -12 -39 -27z m106 -178 c29 -62 46 -79 74 -72 11
3 20 1 20 -4 0 -15 -39 -151 -45 -157 -7 -8 -33 26 -51 67 -10 21 -13 47 -10
66 7 37 -8 85 -26 85 -6 0 -22 -10 -35 -22 l-23 -21 0 40 c0 22 3 54 6 71 6
31 7 31 36 16 20 -10 38 -34 54 -69z m2920 28 c12 -40 14 -71 9 -107 -15 -106
-19 -99 65 -119 41 -10 86 -20 99 -23 21 -4 22 -7 10 -19 -13 -13 -55 -24
-160 -40 -33 -5 -38 -10 -49 -49 -9 -32 -9 -49 -1 -64 6 -11 11 -32 11 -47 l0
-26 -30 18 c-49 28 -110 97 -125 139 -12 36 -12 40 8 50 16 9 28 8 53 -2 61
-26 134 -14 121 20 -5 12 -21 16 -67 16 l-60 0 32 65 c24 48 29 68 21 76 -16
16 -30 4 -51 -45 -21 -46 -72 -101 -83 -88 -4 4 -9 35 -12 70 l-5 63 33 14
c24 10 41 28 60 65 22 44 72 90 97 90 4 0 15 -26 24 -57z m-265 -12 c30 -31
38 -68 17 -89 -8 -8 -11 -39 -10 -86 3 -73 3 -74 -25 -79 -35 -7 -94 3 -87 14
3 5 14 9 25 9 34 0 79 29 79 51 0 11 -9 38 -21 61 -25 49 -38 148 -20 148 7 0
26 -13 42 -29z m-2376 -68 c-25 -59 -67 -94 -142 -117 -30 -9 -29 2 3 75 24
53 30 59 68 68 22 5 51 9 64 10 22 1 22 0 7 -36z m-335 -127 c0 -6 14 -32 32
-56 18 -23 28 -41 22 -39 -5 2 -42 17 -82 32 -70 28 -92 47 -53 47 10 0 29 9
42 19 25 20 39 19 39 -3z m5913 -90 c25 -49 30 -162 8 -213 -19 -45 -58 -45
-107 0 -29 26 -37 42 -41 80 -7 59 17 125 59 167 35 36 47 31 81 -34z m-5666
-1 c57 -25 93 -51 93 -66 0 -7 -43 -4 -115 7 -26 3 -33 10 -42 44 -5 22 -6 40
-2 40 5 0 34 -11 66 -25z m-216 -45 c16 -9 17 -14 8 -32 -12 -21 0 -38 29 -38
6 0 12 -4 12 -8 0 -17 -34 -108 -48 -130 -12 -19 -17 -20 -30 -10 -36 30 -52
117 -36 197 7 33 28 40 65 21z m4927 -81 c2 -24 -8 -87 -22 -139 -13 -52 -22
-98 -20 -102 3 -4 16 -8 29 -8 13 0 26 -4 29 -9 3 -4 -32 -11 -77 -15 -89 -7
-106 -15 -179 -84 -61 -56 -62 -40 -7 71 49 96 115 196 135 204 18 7 18 33 0
33 -40 0 -133 -118 -157 -197 -7 -24 -16 -43 -20 -43 -11 0 -41 96 -37 122 2
16 13 24 38 30 35 9 83 54 100 95 5 12 22 25 37 29 15 4 39 17 53 29 23 22 61
35 85 30 6 -1 11 -21 13 -46z m-2202 10 c8 -17 34 -51 56 -75 24 -26 35 -44
26 -44 -23 0 -130 68 -162 102 -32 35 -24 48 31 48 26 0 36 -6 49 -31z m137
-268 c530 -332 772 -452 1069 -529 87 -23 170 -48 185 -55 l27 -15 -30 -15
c-68 -34 -283 -29 -531 13 -227 39 -477 153 -618 282 -56 51 -372 424 -393
465 -19 35 -15 47 11 31 12 -8 138 -88 280 -177z m3959 173 c35 -9 64 -17 66
-18 1 -2 -3 -16 -8 -33 -15 -41 -47 -55 -87 -38 -33 14 -46 32 -57 78 -8 33
-2 33 86 11z m-2315 -34 c20 -12 35 -30 38 -47 3 -15 15 -51 26 -78 25 -65 24
-115 -1 -148 -11 -14 -20 -34 -20 -45 0 -29 -25 -34 -92 -21 -60 12 -123 45
-120 64 1 12 2 12 105 20 74 6 77 8 77 32 0 15 -14 56 -31 92 -36 75 -50 151
-28 151 8 0 29 -9 46 -20z m2601 -111 c68 -19 95 -20 166 -7 21 3 70 -56 63
-76 -4 -11 -130 -37 -179 -37 -15 0 -36 4 -47 10 -38 21 -67 13 -97 -26 -38
-51 -96 -113 -106 -113 -4 0 -8 8 -8 18 0 9 -11 39 -25 66 -28 56 -32 88 -11
105 21 17 56 -3 56 -32 0 -30 24 -62 38 -53 7 4 12 26 12 49 0 30 -7 48 -26
68 -14 15 -23 32 -20 38 11 18 104 13 184 -10z m-1991 -44 l37 -16 -35 -35
c-50 -50 -97 -63 -199 -57 -106 7 -110 3 -119 -111 -3 -47 -9 -88 -13 -91 -12
-12 -50 17 -63 48 -7 18 -16 52 -20 77 -5 37 -3 50 14 72 38 47 101 70 207 74
108 3 118 7 104 35 -10 17 -7 19 20 19 17 0 47 -7 67 -15z m-471 -285 c27 -76
57 -105 116 -116 l43 -7 -30 -10 c-16 -5 -88 -34 -158 -64 -108 -46 -140 -55
-205 -59 l-77 -5 32 28 c18 15 61 44 95 63 73 41 103 81 113 146 8 56 25 96
38 91 5 -1 20 -32 33 -67z m1462 18 c45 -6 82 -15 82 -19 0 -29 -189 -125
-385 -195 -204 -73 -331 -103 -564 -132 l-214 -26 -151 17 c-183 22 -266 36
-266 47 0 15 256 104 564 196 61 19 472 92 651 117 64 9 204 7 283 -5z m-4409
-1240 c7 -8 40 -13 86 -13 89 0 108 -12 85 -53 -10 -16 -34 -34 -65 -46 -129
-50 -135 -54 -135 -78 0 -13 5 -29 12 -36 9 -9 8 -12 -4 -12 -8 0 -22 7 -29
16 -8 9 -31 27 -51 40 -34 22 -51 53 -30 55 131 11 176 18 190 32 9 9 13 19
10 23 -4 3 -46 1 -93 -5 -48 -7 -90 -9 -93 -6 -7 7 79 95 93 95 6 0 17 -6 24
-12z m-184 -189 c23 -22 47 -39 53 -39 6 0 20 -14 32 -30 12 -17 38 -39 58
-50 28 -15 32 -19 16 -20 -20 0 -114 65 -114 80 0 5 -13 13 -30 18 -27 10 -31
8 -50 -19 -12 -16 -31 -29 -42 -29 -18 0 -20 4 -14 31 3 17 6 51 6 76 0 42 1
43 21 32 12 -6 41 -29 64 -50z m-1315 -2113 c0 -72 0 -74 -27 -79 -16 -3 -30
-4 -31 -2 -8 7 18 137 29 151 20 25 29 4 29 -70z m-132 -144 l73 3 13 -45 c8
-25 12 -46 11 -48 -2 -2 -28 3 -59 12 -39 10 -67 12 -88 6 -35 -10 -58 -1
-100 38 -44 40 -37 51 25 40 28 -6 85 -8 125 -6z m337 -29 c32 -32 48 -114 24
-129 -6 -3 -19 -19 -28 -36 l-18 -29 -12 44 c-9 37 -16 47 -42 56 -18 6 -40
11 -50 11 -22 0 -61 39 -52 53 11 17 88 47 125 47 21 0 44 -7 53 -17z m-250
-170 c-16 -8 -43 -27 -60 -42 -29 -27 -128 -81 -146 -81 -34 0 26 87 66 96 17
4 46 15 65 25 19 11 51 19 70 19 l35 -1 -30 -16z m1009 -238 c6 -17 -12 -65
-25 -65 -4 0 -11 5 -14 10 -4 6 -18 0 -37 -15 -31 -26 -67 -32 -99 -15 -30 16
-23 27 29 45 26 9 63 24 82 35 43 23 56 24 64 5z m-254 -125 c0 -11 -7 -20
-15 -20 -18 0 -19 12 -3 28 16 16 18 15 18 -8z m222 -92 c79 -78 81 -81 49
-75 -18 4 -41 7 -51 7 -10 0 -23 13 -30 29 -6 16 -29 41 -49 55 -37 26 -38 26
-85 10 -26 -9 -50 -13 -53 -10 -4 4 9 20 28 36 24 21 45 29 71 30 34 0 46 -8
120 -82z m-172 -78 c0 -41 -30 -85 -52 -78 -16 6 -48 69 -48 95 0 21 5 23 50
23 l50 0 0 -40z m856 -447 c9 -21 20 -60 22 -87 6 -58 -10 -76 -69 -76 l-36 0
-6 57 c-8 72 0 110 27 128 31 23 42 18 62 -22z m264 -91 c0 -45 -11 -61 -67
-96 -52 -32 -77 -77 -69 -120 4 -17 21 -66 38 -108 18 -43 29 -81 25 -84 -14
-15 -117 19 -190 61 -42 25 -83 45 -92 45 -9 0 -40 -22 -68 -49 -29 -26 -67
-56 -84 -65 l-33 -17 -20 33 c-26 43 -25 60 4 111 13 23 27 58 30 78 6 37 6
37 -41 53 -46 16 -93 50 -93 69 0 14 137 2 156 -14 14 -11 16 -26 10 -85 -5
-70 -5 -72 18 -76 27 -5 36 12 36 66 0 26 2 28 28 21 15 -3 78 -38 140 -77
137 -85 152 -90 152 -54 0 19 -7 29 -26 36 -69 27 -246 148 -218 151 5 0 50 6
99 12 l90 12 3 37 c3 33 8 39 49 59 39 19 84 34 116 38 4 1 7 -16 7 -37z
m-1978 -29 c20 -45 31 -153 17 -167 -3 -3 -33 -3 -67 0 -59 7 -62 8 -62 34 0
61 54 180 81 180 6 0 20 -21 31 -47z m-242 -168 c34 -35 52 -45 87 -50 24 -3
63 -8 88 -11 l45 -5 -20 -39 c-11 -22 -29 -44 -39 -50 -25 -13 -42 -13 -18 1
22 13 23 44 1 35 -9 -3 -19 -6 -24 -6 -4 0 -29 -20 -56 -45 -26 -25 -51 -45
-56 -45 -4 0 -8 -7 -8 -15 0 -21 23 -19 71 5 22 12 56 22 76 23 l37 2 12 -73
c15 -85 27 -106 55 -92 16 9 17 13 4 43 -21 51 -28 120 -16 165 7 23 16 44 21
47 5 3 25 -6 46 -20 20 -14 45 -25 56 -25 11 0 16 -4 13 -10 -3 -5 -14 -10
-24 -10 -11 0 -29 -9 -42 -19 -23 -18 -24 -26 -24 -128 0 -102 -1 -108 -20
-105 -23 3 -109 94 -127 135 -11 23 -17 27 -38 22 -49 -11 -138 -9 -159 4 -19
12 1 47 40 66 76 40 92 93 37 121 -60 30 -98 64 -98 88 0 50 24 48 80 -9z
m435 -78 c86 -32 85 -64 -3 -80 -28 -6 -34 -3 -41 16 -5 12 -21 33 -35 46 -14
14 -26 28 -26 33 0 14 42 8 105 -15z m1345 -574 c27 -18 49 -43 50 -55 0 -5
-11 -8 -24 -8 -25 0 -66 41 -66 66 0 18 10 18 40 -3z m305 -10 c-7 -32 -56
-113 -67 -113 -4 0 -13 11 -21 25 -12 25 -14 25 -29 8 -9 -10 -21 -42 -27 -72
-14 -64 -25 -81 -56 -81 -22 0 -24 5 -27 73 -2 39 -8 81 -13 92 -8 19 -8 19
12 3 33 -29 68 -22 108 21 36 39 87 70 114 71 9 0 11 -8 6 -27z m-265 -161 c0
-10 -6 -26 -13 -37 -15 -20 -48 -17 -82 9 -19 15 -19 15 11 16 16 0 39 7 50
15 26 19 34 19 34 -3z m257 -42 c78 -22 120 -47 104 -63 -8 -8 -49 -11 -124
-9 -61 2 -113 5 -115 6 -1 2 8 24 20 50 17 33 27 44 38 40 8 -4 43 -14 77 -24z
m-97 -120 c14 -8 18 -18 15 -38 -2 -15 -7 -48 -10 -74 -8 -61 -27 -63 -56 -6
-12 23 -31 55 -42 69 -28 39 -17 59 33 59 23 0 50 -5 60 -10z m-628 -222 c15
-31 23 -67 26 -125 4 -82 4 -83 -19 -83 -48 0 -65 12 -86 58 l-22 47 34 73
c19 39 36 72 39 72 3 0 15 -19 28 -42z m388 -213 c23 -37 39 -69 36 -72 -2 -3
-33 11 -68 31 -35 19 -94 45 -131 56 -37 11 -67 24 -67 29 0 5 18 48 41 96
l40 88 54 -80 c30 -45 72 -111 95 -148z m-557 34 c12 -7 37 -25 55 -40 18 -16
43 -29 55 -29 12 0 28 -4 36 -9 15 -10 -11 -24 -94 -51 -66 -21 -114 -49 -131
-75 -27 -41 -9 -41 56 -1 36 22 81 41 112 46 29 4 54 7 54 6 1 0 -2 -30 -7
-66 -8 -56 -7 -73 12 -123 34 -92 58 -94 35 -3 -13 50 -13 67 0 148 8 50 17
94 19 98 6 10 79 23 130 23 41 1 155 -44 176 -69 28 -33 -160 -2 -211 35 -27
19 -50 18 -50 -3 0 -23 35 -45 90 -57 44 -9 51 -14 35 -20 -11 -4 -35 -8 -53
-8 -18 -1 -42 -10 -54 -20 -19 -18 -20 -24 -9 -83 26 -142 29 -168 23 -192 -7
-25 -7 -25 -33 -8 -64 41 -128 111 -140 151 -17 56 -29 64 -70 47 -54 -22
-121 -29 -168 -16 -75 20 -69 71 17 128 73 48 78 70 23 120 -39 35 -50 60 -34
75 11 11 103 8 126 -4z m-1030 -619 l26 -80 -24 -36 c-14 -20 -25 -41 -25 -46
0 -5 -11 -13 -25 -18 -15 -6 -36 -31 -55 -67 -16 -32 -36 -66 -42 -75 -16 -22
-5 -32 25 -24 17 4 29 19 42 52 11 30 28 52 49 65 17 10 40 33 51 51 l20 33 3
-65 c2 -50 8 -70 25 -89 l22 -23 -25 7 c-14 4 -32 14 -41 21 -8 8 -20 14 -26
14 -17 0 -58 -50 -74 -93 -11 -29 -26 -47 -50 -60 -32 -16 -35 -16 -47 0 -14
18 -13 32 4 195 6 55 6 57 -25 73 -32 16 -60 59 -47 72 3 4 21 -8 39 -25 35
-34 66 -40 111 -22 25 9 26 13 26 83 0 72 14 137 29 137 4 0 20 -36 34 -80z
m267 -35 c0 -23 -35 -53 -76 -64 -38 -11 -84 -46 -84 -65 0 -6 14 -31 30 -55
35 -51 40 -101 12 -101 -22 0 -36 39 -52 147 -16 104 -12 124 30 139 52 19
140 18 140 -1z m910 -227 c0 -16 -3 -19 -11 -11 -6 6 -8 16 -5 22 11 17 16 13
16 -11z m30 -327 c17 -33 12 -46 -10 -26 -21 19 -27 45 -10 45 5 0 14 -9 20
-19z m163 -10 c-3 -11 0 -43 6 -72 6 -28 10 -53 8 -55 -2 -2 -20 2 -41 8 -35
11 -37 14 -32 42 5 25 50 96 61 96 2 0 1 -9 -2 -19z m96 -57 l21 -46 34 21
c47 29 58 28 45 -6 -11 -29 -57 -83 -71 -83 -4 0 -8 6 -8 13 0 8 -9 22 -21 33
-43 39 -65 114 -34 114 8 0 23 -21 34 -46z m-207 -77 c15 -12 13 -17 -20 -56
-28 -31 -47 -43 -76 -48 -37 -6 -38 -5 -27 15 6 12 24 28 39 36 16 8 33 26 40
40 13 29 20 31 44 13z m155 -61 c2 -2 -27 -89 -32 -94 -6 -6 -44 55 -51 82
l-7 28 44 -7 c24 -4 45 -8 46 -9z m-1037 -151 c0 -9 13 -41 29 -73 l29 -57
-24 -18 c-20 -15 -24 -27 -24 -67 0 -28 -4 -50 -8 -50 -5 0 -19 11 -31 24 -13
14 -36 30 -52 36 -18 8 -29 20 -29 32 0 19 5 22 51 32 37 8 45 34 15 46 l-24
9 26 50 c27 51 42 64 42 36z m266 -1450 c-3 -22 -8 -52 -12 -67 -6 -26 -4 -28
22 -28 16 1 74 7 129 14 55 7 102 12 103 10 2 -1 1 -16 -3 -33 -4 -17 -29 -52
-63 -85 l-56 -55 17 -77 c9 -43 15 -79 13 -82 -3 -2 -24 5 -48 16 -51 23 -91
64 -112 114 -18 42 -15 46 54 72 51 20 80 43 80 63 0 16 -15 13 -100 -22 -63
-26 -120 -40 -120 -30 0 4 14 32 31 61 17 30 29 62 27 71 -4 15 -13 9 -46 -26
-23 -24 -42 -41 -42 -37 0 17 63 143 82 163 31 33 52 13 44 -42z m-146 -163
c0 -27 -51 -34 -110 -16 -13 5 -13 6 0 14 18 12 110 13 110 2z m-298 -202
c145 -192 196 -266 230 -335 27 -53 88 -218 88 -238 0 -20 -147 134 -204 213
-30 42 -69 105 -87 140 -17 36 -39 76 -49 90 -23 36 -110 256 -110 282 0 12 2
19 4 17 2 -2 59 -78 128 -169z m1348 134 c124 -35 215 -148 227 -282 l6 -62
-40 0 c-22 0 -61 3 -86 6 l-45 6 0 44 c1 50 -24 94 -53 94 -12 0 -49 -27 -85
-62 l-65 -62 -49 27 c-60 34 -75 34 -110 -1 -52 -52 -57 -111 -13 -170 l17
-24 -48 7 c-39 6 -49 4 -60 -10 -12 -16 -14 -15 -34 13 -20 27 -22 43 -22 144
0 98 3 120 24 164 64 137 268 215 436 168z m-992 -50 c12 -8 22 -23 22 -32 0
-20 -50 -122 -60 -122 -11 0 -23 125 -15 150 8 24 23 25 53 4z m985 -270 c-1
-16 -5 -46 -9 -67 l-6 -38 72 7 c71 7 72 6 61 -14 -11 -21 -21 -26 -81 -37
-72 -13 -70 -11 -70 -77 0 -68 -12 -73 -44 -18 -17 29 -18 38 -8 76 7 25 12
63 12 85 0 41 11 71 38 102 21 24 37 16 35 -19z m-165 -86 c29 -21 50 -43 47
-49 -11 -17 -50 -10 -63 12 -7 11 -29 27 -48 35 -23 10 -34 21 -34 35 0 28 30
18 98 -33z m5 -104 c8 -8 -53 -74 -70 -74 -20 0 -16 15 13 49 25 30 44 38 57
25z m-1399 -171 c3 -21 6 -54 6 -74 0 -34 3 -37 48 -54 118 -45 116 -44 96
-66 -10 -11 -45 -27 -77 -36 -33 -9 -62 -23 -65 -31 -3 -8 2 -38 12 -66 20
-66 20 -66 -4 -66 -22 0 -110 81 -110 102 0 20 42 58 66 58 12 0 32 8 45 19
l23 18 -22 12 c-13 7 -32 9 -42 6 -19 -6 -20 -3 -14 68 5 55 3 76 -6 82 -21
13 -40 -24 -40 -79 0 -62 -18 -100 -48 -104 -18 -3 -22 1 -22 22 0 16 -8 30
-21 37 -22 11 -22 10 -17 -58 7 -95 -1 -113 -51 -113 -34 0 -39 3 -34 18 3 9
17 29 31 44 21 23 24 33 18 70 -5 32 -13 46 -29 53 -26 12 -34 40 -17 60 10
12 21 9 71 -17 55 -29 61 -30 76 -16 9 9 20 40 24 70 9 58 27 78 70 78 23 0
27 -5 33 -37z m-84 -429 c22 -20 40 -40 40 -44 0 -12 -96 -50 -126 -50 -25 0
-26 2 -21 39 6 44 33 91 53 91 8 0 32 -16 54 -36z m1729 -22 c24 -47 35 -104
27 -136 -6 -23 -8 -24 -43 -14 -32 9 -110 43 -122 54 -11 10 93 134 114 134 3
0 13 -17 24 -38z m-289 -159 c0 -21 -9 -53 -21 -72 -18 -29 -24 -33 -50 -27
-44 9 -89 44 -105 82 -8 18 -14 36 -14 38 0 5 61 11 143 14 l47 2 0 -37z m269
-48 c61 -29 81 -35 120 -31 150 16 161 16 161 3 0 -31 -71 -95 -134 -123 l-65
-28 -3 -131 c-3 -125 -4 -130 -25 -133 -35 -5 -83 26 -165 106 l-77 75 -38
-15 c-21 -9 -66 -28 -101 -43 -72 -30 -116 -30 -120 0 -4 28 60 129 138 219
36 41 72 85 81 97 48 69 53 -90 5 -182 -31 -61 -34 -84 -8 -70 17 9 50 68 72
129 7 17 15 32 19 32 4 0 22 -41 40 -91 57 -158 88 -219 111 -219 l20 0 -21
53 c-67 168 -81 217 -61 217 4 0 23 -11 42 -25 19 -14 40 -25 47 -25 29 0 8
33 -72 112 -47 46 -85 89 -85 96 0 21 44 13 119 -23z"/>
<path d="M5097 11794 c-12 -12 -8 -64 6 -64 24 0 39 18 35 41 -3 23 -27 37
-41 23z"/>
<path d="M6693 11508 c-12 -13 -29 -42 -38 -65 -10 -24 -20 -43 -24 -43 -3 0
-14 18 -24 40 -18 39 -19 40 -73 40 -49 0 -55 -2 -69 -30 -9 -17 -23 -29 -33
-28 -40 3 -53 -4 -72 -42 -28 -56 -27 -107 5 -132 32 -25 31 -33 -5 -110 -35
-74 -38 -120 -10 -148 18 -18 28 -19 88 -14 66 6 68 6 165 -45 53 -28 107 -51
120 -51 53 0 87 48 115 160 17 68 19 70 71 102 78 47 113 95 119 162 l4 54
-48 6 c-27 3 -79 8 -116 12 l-68 6 0 74 0 74 -43 0 c-32 0 -49 -6 -64 -22z
m33 -150 l-1 -53 113 -3 c125 -3 131 -8 86 -61 -21 -25 -33 -31 -67 -31 -50 0
-107 27 -166 78 l-44 38 37 42 c21 23 40 42 41 42 2 0 2 -24 1 -52z m-213 -35
c16 -10 5 -52 -28 -107 -40 -67 -43 -86 -15 -86 13 0 27 12 38 31 49 90 85 99
96 23 13 -101 65 -139 87 -65 11 37 10 41 -20 78 -17 20 -31 41 -31 45 0 4 34
-9 75 -30 62 -31 73 -40 69 -57 -3 -11 -9 -51 -12 -90 -4 -38 -11 -76 -15 -82
-21 -34 -125 10 -166 69 -28 42 -32 42 -110 13 -24 -9 -50 -14 -58 -11 -22 9
-15 56 15 105 16 25 34 61 40 79 11 32 10 34 -23 54 -37 21 -43 33 -22 41 12
6 65 -1 80 -10z"/>
<path d="M312 9643 c-49 -48 -62 -73 -62 -117 0 -19 -4 -38 -10 -41 -5 -3 -41
8 -79 25 -38 16 -73 30 -78 30 -5 0 -19 -10 -31 -23 -27 -28 -31 -107 -7 -127
8 -7 24 -28 36 -47 l22 -35 -23 -67 c-33 -95 -29 -101 72 -101 l83 0 29 -55
c34 -65 68 -95 106 -95 34 0 44 12 67 80 l18 54 72 17 c40 10 85 27 100 37 16
11 40 27 55 36 33 19 49 47 39 64 -6 10 -29 2 -88 -29 -66 -34 -87 -41 -114
-35 -43 8 -70 25 -51 33 7 3 33 19 59 36 51 36 88 97 99 165 6 37 4 42 -13 42
-11 0 -34 -7 -51 -16 -20 -10 -51 -14 -89 -12 l-58 3 -6 70 c-5 65 -26 126
-49 140 -5 3 -27 -11 -48 -32z m8 -267 c-11 -18 -20 -41 -20 -51 0 -23 -22
-14 -40 18 -13 24 -13 29 3 54 17 27 47 87 64 128 5 14 9 -1 11 -48 2 -55 -1
-75 -18 -101z m-175 34 c3 -5 -1 -10 -9 -10 -9 0 -16 5 -16 10 0 6 4 10 9 10
6 0 13 -4 16 -10z m375 -38 c0 -18 -38 -42 -81 -51 -24 -4 -50 -10 -57 -12 -8
-2 -19 4 -25 13 -9 13 -6 21 14 37 18 16 39 20 87 21 34 0 62 -4 62 -8z m-300
-81 c0 -5 -9 -11 -20 -14 -22 -6 -26 3 -8 21 11 11 28 7 28 -7z m102 -92 c19
-10 48 -65 48 -91 0 -16 -51 33 -73 72 -19 32 -11 38 25 19z"/>
</g>
</svg>
